REM DIRINDEX 1\2,1\3,1\4,1\5\6,1\5\7,1\8
REM DIRNAME folder01,folder02,folder03,folder04,folder05,folder06,folder07,folder08
TITLE ""
FILE "130 【130】Unit7 (1477 illogical_1488 superficial).mp3" MP3
  TRACK 01 AUDIO
    TITLE "0:"
    INDEX 01 00:00:00
  TRACK 02 AUDIO
    TITLE "2:cjc115_5046"
    INDEX 01 00:00:07
  TRACK 03 AUDIO
    TITLE "0:"
    INDEX 01 00:01:38
  TRACK 04 AUDIO
    TITLE "3:cjc115_5047"
    INDEX 01 00:01:44
  TRACK 05 AUDIO
    TITLE "0:"
    INDEX 01 00:04:66
  TRACK 06 AUDIO
    TITLE "4:cjc115_5048"
    INDEX 01 00:05:01
  TRACK 07 AUDIO
    TITLE "0:"
    INDEX 01 00:09:22
  TRACK 08 AUDIO
    TITLE "2:cjc115_5049"
    INDEX 01 00:10:31
  TRACK 09 AUDIO
    TITLE "0:"
    INDEX 01 00:11:42
  TRACK 10 AUDIO
    TITLE "3:cjc115_5050"
    INDEX 01 00:11:54
  TRACK 11 AUDIO
    TITLE "0:"
    INDEX 01 00:13:73
  TRACK 12 AUDIO
    TITLE "4:cjc115_5051"
    INDEX 01 00:14:07
  TRACK 13 AUDIO
    TITLE "0:"
    INDEX 01 00:17:29
  TRACK 14 AUDIO
    TITLE "2:cjc115_5052"
    INDEX 01 00:18:39
  TRACK 15 AUDIO
    TITLE "0:"
    INDEX 01 00:19:58
  TRACK 16 AUDIO
    TITLE "3:cjc115_5053"
    INDEX 01 00:19:65
  TRACK 17 AUDIO
    TITLE "0:"
    INDEX 01 00:21:39
  TRACK 18 AUDIO
    TITLE "4:cjc115_5054"
    INDEX 01 00:21:49
  TRACK 19 AUDIO
    TITLE "0:"
    INDEX 01 00:25:01
  TRACK 20 AUDIO
    TITLE "2:cjc115_5055"
    INDEX 01 00:26:11
  TRACK 21 AUDIO
    TITLE "0:"
    INDEX 01 00:27:30
  TRACK 22 AUDIO
    TITLE "3:cjc115_5056"
    INDEX 01 00:27:41
  TRACK 23 AUDIO
    TITLE "0:"
    INDEX 01 00:29:44
  TRACK 24 AUDIO
    TITLE "4:cjc115_5057"
    INDEX 01 00:29:52
  TRACK 25 AUDIO
    TITLE "0:"
    INDEX 01 00:32:56
  TRACK 26 AUDIO
    TITLE "2:cjc115_5058"
    INDEX 01 00:33:64
  TRACK 27 AUDIO
    TITLE "0:"
    INDEX 01 00:35:33
  TRACK 28 AUDIO
    TITLE "3:cjc115_5059"
    INDEX 01 00:35:43
  TRACK 29 AUDIO
    TITLE "0:"
    INDEX 01 00:37:52
  TRACK 30 AUDIO
    TITLE "4:cjc115_5060"
    INDEX 01 00:37:61
  TRACK 31 AUDIO
    TITLE "0:"
    INDEX 01 00:43:05
  TRACK 32 AUDIO
    TITLE "2:cjc115_5061"
    INDEX 01 00:44:14
  TRACK 33 AUDIO
    TITLE "0:"
    INDEX 01 00:45:53
  TRACK 34 AUDIO
    TITLE "3:cjc115_5062"
    INDEX 01 00:45:59
  TRACK 35 AUDIO
    TITLE "0:"
    INDEX 01 00:46:74
  TRACK 36 AUDIO
    TITLE "4:cjc115_5063"
    INDEX 01 00:47:01
  TRACK 37 AUDIO
    TITLE "0:"
    INDEX 01 00:50:27
  TRACK 38 AUDIO
    TITLE "2:cjc115_5064"
    INDEX 01 00:51:36
  TRACK 39 AUDIO
    TITLE "0:"
    INDEX 01 00:52:59
  TRACK 40 AUDIO
    TITLE "3:cjc115_5065"
    INDEX 01 00:52:69
  TRACK 41 AUDIO
    TITLE "0:"
    INDEX 01 00:54:25
  TRACK 42 AUDIO
    TITLE "4:cjc115_5066"
    INDEX 01 00:54:36
  TRACK 43 AUDIO
    TITLE "0:"
    INDEX 01 00:58:09
  TRACK 44 AUDIO
    TITLE "2:cjc115_5067"
    INDEX 01 00:59:20
  TRACK 45 AUDIO
    TITLE "0:"
    INDEX 01 01:00:47
  TRACK 46 AUDIO
    TITLE "3:cjc115_5068"
    INDEX 01 01:00:57
  TRACK 47 AUDIO
    TITLE "0:"
    INDEX 01 01:02:54
  TRACK 48 AUDIO
    TITLE "4:cjc115_5069"
    INDEX 01 01:02:61
  TRACK 49 AUDIO
    TITLE "0:"
    INDEX 01 01:07:47
  TRACK 50 AUDIO
    TITLE "2:cjc115_5070"
    INDEX 01 01:08:56
  TRACK 51 AUDIO
    TITLE "0:"
    INDEX 01 01:09:71
  TRACK 52 AUDIO
    TITLE "3:cjc115_5071"
    INDEX 01 01:10:00
  TRACK 53 AUDIO
    TITLE "0:"
    INDEX 01 01:11:23
  TRACK 54 AUDIO
    TITLE "4:cjc115_5072"
    INDEX 01 01:11:33
  TRACK 55 AUDIO
    TITLE "0:"
    INDEX 01 01:15:62
  TRACK 56 AUDIO
    TITLE "2:cjc115_5073"
    INDEX 01 01:16:67
  TRACK 57 AUDIO
    TITLE "0:"
    INDEX 01 01:18:17
  TRACK 58 AUDIO
    TITLE "3:cjc115_5074"
    INDEX 01 01:18:25
  TRACK 59 AUDIO
    TITLE "0:"
    INDEX 01 01:20:61
  TRACK 60 AUDIO
    TITLE "4:cjc115_5075"
    INDEX 01 01:20:71
  TRACK 61 AUDIO
    TITLE "0:"
    INDEX 01 01:25:53
  TRACK 62 AUDIO
    TITLE "2:cjc115_5076"
    INDEX 01 01:26:64
  TRACK 63 AUDIO
    TITLE "0:"
    INDEX 01 01:28:20
  TRACK 64 AUDIO
    TITLE "3:cjc115_5077"
    INDEX 01 01:28:27
  TRACK 65 AUDIO
    TITLE "0:"
    INDEX 01 01:30:01
  TRACK 66 AUDIO
    TITLE "4:cjc115_5078"
    INDEX 01 01:30:09
  TRACK 67 AUDIO
    TITLE "0:"
    INDEX 01 01:33:66
  TRACK 68 AUDIO
    TITLE "2:cjc115_5079"
    INDEX 01 01:35:00
  TRACK 69 AUDIO
    TITLE "0:"
    INDEX 01 01:36:41
  TRACK 70 AUDIO
    TITLE "3:cjc115_5080"
    INDEX 01 01:36:45
  TRACK 71 AUDIO
    TITLE "0:"
    INDEX 01 01:38:04
  TRACK 72 AUDIO
    TITLE "4:cjc115_5081"
    INDEX 01 01:38:14
  TRACK 73 AUDIO
    TITLE "0:"
    INDEX 01 01:41:44
